<?xml version="1.0" standalone="no"?>
<!DOCTYPE svg PUBLIC "-//W3C//DTD SVG 20010904//EN"
 "http://www.w3.org/TR/2001/REC-SVG-20010904/DTD/svg10.dtd">
<svg version="1.0" xmlns="http://www.w3.org/2000/svg"
 width="300.000000pt" height="300.000000pt" viewBox="0 0 300.000000 300.000000"
 preserveAspectRatio="xMidYMid meet">
<metadata>
Created by potrace 1.14, written by Peter Selinger 2001-2017
</metadata>
<g transform="translate(0.000000,300.000000) scale(0.100000,-0.100000)"
fill="#000000" stroke="none">
<path d="M1315 2670 c-157 -25 -334 -94 -475 -185 -105 -68 -281 -249 -349
-359 -237 -383 -237 -868 0 -1252 67 -109 243 -290 349 -359 553 -360 1289
-209 1651 340 189 285 241 664 138 1000 -51 168 -189 389 -314 503 -132 121
-233 186 -369 238 -148 56 -250 75 -416 79 -85 2 -182 0 -215 -5z m445 -133
c237 -62 425 -183 576 -371 82 -102 166 -270 201 -401 24 -90 27 -117 26 -265
0 -146 -3 -176 -26 -265 -210 -789 -1185 -1070 -1775 -511 -445 422 -449 1122
-9 1543 159 152 353 251 565 289 117 20 323 12 442 -19z"/>
<path d="M1420 2404 c-47 -31 -97 -68 -112 -82 -15 -14 -30 -23 -33 -20 -3 2
-1 27 4 54 9 45 4 76 -6 46 -3 -7 -19 -32 -37 -55 -17 -23 -46 -64 -64 -90
l-32 -49 10 -81 c5 -45 7 -154 5 -242 -5 -151 -4 -163 17 -215 46 -109 55
-120 96 -120 20 -1 56 -5 79 -9 37 -7 47 -5 75 15 17 13 50 31 74 40 33 12 41
20 37 35 -8 28 4 24 58 -22 46 -39 64 -67 36 -56 -10 4 -12 -3 -9 -24 4 -24 1
-29 -17 -29 -11 0 -21 -4 -21 -10 0 -5 4 -10 9 -10 5 0 12 -14 16 -30 9 -42
31 -60 70 -60 24 0 38 6 45 19 16 30 12 51 -9 51 -27 0 -36 19 -19 37 13 12
19 11 46 -12 36 -30 39 -27 17 15 -15 29 -15 30 8 30 28 0 67 -26 67 -45 0 -7
4 -15 9 -17 11 -4 31 -192 31 -288 0 -73 -21 -124 -83 -205 -27 -35 -28 -37
-5 -17 39 36 43 13 13 -89 -15 -50 -24 -93 -21 -96 3 -3 8 3 12 13 18 57 57
144 65 144 5 0 9 -19 9 -42 1 -57 16 -31 35 58 7 36 15 68 17 70 3 2 15 -29
29 -69 l24 -72 5 110 c3 61 9 109 13 108 4 -1 26 -25 48 -53 23 -29 43 -50 45
-48 2 3 -3 36 -11 74 -20 95 -19 105 10 69 28 -34 29 -33 16 13 -5 17 -7 32
-3 32 4 0 26 -21 50 -47 l43 -48 -21 42 c-25 53 -25 61 0 38 26 -24 26 -5 0
53 -10 23 -17 42 -14 42 2 0 27 -12 55 -26 28 -14 53 -23 56 -20 3 2 -8 24
-25 48 -31 45 -62 102 -62 114 0 4 19 4 43 0 l42 -7 -35 30 c-29 25 -32 30
-15 30 28 1 114 -40 151 -72 65 -55 59 -32 -21 88 -36 53 -65 99 -65 102 0 3
11 3 25 1 37 -8 30 3 -32 47 -59 43 -53 58 12 31 21 -9 42 -16 48 -16 15 0
-51 67 -85 88 -16 9 -28 20 -28 24 0 4 39 8 88 8 l87 0 -59 36 c-78 47 -176
122 -176 136 0 6 10 8 25 4 14 -3 37 -9 53 -12 26 -5 27 -5 7 12 -19 16 -19
16 15 10 108 -22 109 -21 30 27 -41 25 -121 85 -176 134 -56 49 -128 103 -159
120 l-58 31 55 34 c66 43 156 149 101 119 -23 -12 -222 -81 -234 -81 -21 0 -5
17 51 55 63 42 75 59 38 50 -75 -16 -156 -26 -258 -31 -83 -5 -126 -12 -152
-26 -21 -10 -38 -16 -38 -13 0 3 11 22 23 43 37 57 48 82 40 82 -5 0 -46 -25
-93 -56z m368 -211 c-10 -2 -26 -2 -35 0 -10 3 -2 5 17 5 19 0 27 -2 18 -5z
m72 -13 c20 -6 21 -8 5 -8 -11 0 -29 3 -40 8 -25 11 1 11 35 0z m76 -25 c17
-13 16 -14 -13 -4 -34 11 -42 19 -20 19 7 0 22 -7 33 -15z m109 -50 c29 -26
33 -33 15 -24 -37 18 -78 50 -84 66 -8 20 20 3 69 -42z m-155 34 c32 -7 48
-15 43 -20 -6 -6 -36 -2 -79 10 -76 21 -50 29 36 10z m-105 -19 c12 -5 -4 -6
-40 -3 -33 3 -62 7 -64 9 -9 8 85 2 104 -6z m74 -135 c59 -30 68 -43 14 -19
-21 9 -56 22 -78 30 l-40 14 43 -39 c23 -22 42 -42 42 -45 0 -13 -96 61 -97
74 0 35 24 32 116 -15z m-292 9 c13 -4 21 -10 18 -14 -3 -5 17 -24 44 -44 53
-39 161 -151 161 -167 0 -14 -89 54 -90 68 0 18 -92 94 -157 130 -53 30 -56
33 -28 33 17 0 40 -3 52 -6z m-148 -55 c17 -6 31 -16 31 -23 0 -6 21 -32 46
-56 56 -55 159 -188 151 -196 -3 -3 -26 24 -52 60 -25 36 -85 102 -132 146
-47 44 -84 80 -81 80 3 0 19 -5 37 -11z m801 -127 c0 -9 -65 34 -94 63 -70 70
-57 77 18 10 42 -38 76 -71 76 -73z m-596 27 c22 -33 24 -38 8 -30 -22 12 -36
29 -45 54 -11 31 10 18 37 -24z m-214 -131 c12 -21 19 -38 17 -38 -5 0 -80
107 -91 130 -15 29 53 -55 74 -92z m359 -144 c2 -2 -8 -4 -22 -4 -18 0 -27 5
-27 15 0 13 4 14 23 4 12 -6 24 -13 26 -15z m462 -1 l24 -27 -27 17 c-29 18
-37 11 -15 -13 6 -7 -3 -3 -21 9 -18 12 -30 27 -27 32 11 17 42 9 66 -18z"/>
<path d="M920 2207 c0 -2 16 -24 35 -48 41 -52 44 -72 11 -87 -13 -6 -51 -46
-84 -90 -33 -43 -84 -100 -112 -125 -56 -51 -55 -55 9 -32 46 16 47 15 27 -23
-7 -15 -17 -38 -21 -52 -5 -20 -2 -18 21 12 30 42 55 54 81 40 13 -8 20 -4 32
22 16 31 43 39 82 22 22 -10 36 47 45 182 6 94 5 104 -12 117 -26 19 -114 67
-114 62z"/>
<path d="M1050 1720 c0 -11 4 -20 9 -20 5 0 7 9 4 20 -3 11 -7 20 -9 20 -2 0
-4 -9 -4 -20z"/>
<path d="M930 1717 c0 -7 7 -22 15 -33 13 -17 14 -16 4 14 -11 33 -19 41 -19
19z"/>
<path d="M745 1630 c-3 -5 -1 -10 4 -10 6 0 11 5 11 10 0 6 -2 10 -4 10 -3 0
-8 -4 -11 -10z"/>
<path d="M808 1613 c-2 -16 -8 -27 -16 -25 -20 4 0 -27 48 -73 l42 -40 -20 40
c-11 23 -23 58 -27 78 -9 46 -23 56 -27 20z"/>
<path d="M992 1550 c0 -14 2 -19 5 -12 2 6 2 18 0 25 -3 6 -5 1 -5 -13z"/>
<path d="M1000 1494 c0 -7 10 -9 25 -6 36 6 38 17 4 17 -16 0 -29 -5 -29 -11z"/>
<path d="M1479 1480 c-35 -10 -150 -102 -179 -143 -18 -25 -19 -28 -4 -15 18
16 22 15 78 -23 32 -21 62 -39 68 -39 5 0 -7 22 -27 50 -20 27 -35 54 -33 60
4 11 144 -48 200 -85 40 -26 41 -24 8 25 -9 14 -27 43 -40 65 l-24 40 37 -28
c20 -15 37 -25 37 -22 0 3 -14 29 -30 58 -17 30 -27 57 -23 60 9 9 -35 7 -68
-3z"/>
<path d="M972 1432 c-15 -15 -30 -22 -43 -19 -12 3 -19 0 -19 -8 0 -19 51 -1
76 26 25 28 13 29 -14 1z"/>
<path d="M1803 1406 c-21 -45 -59 -60 -128 -53 -58 6 -66 0 -37 -26 42 -38
141 -30 174 13 23 31 36 100 19 100 -6 0 -19 -15 -28 -34z"/>
<path d="M725 1391 c4 -15 3 -26 -5 -31 -8 -5 0 -16 26 -34 47 -32 76 -36 50
-7 -9 10 -16 24 -14 30 2 7 -12 24 -31 39 l-34 27 8 -24z"/>
<path d="M996 1349 c-14 -17 -26 -35 -26 -40 0 -5 -9 -13 -21 -17 l-20 -8 20
-18 c21 -19 21 -19 21 6 0 14 14 44 30 66 35 49 33 55 -4 11z"/>
<path d="M1204 1209 c-10 -12 -42 -36 -71 -55 -29 -18 -63 -50 -76 -71 -51
-83 -79 -135 -68 -129 6 4 11 1 11 -6 0 -10 2 -10 9 0 6 10 14 1 27 -31 18
-43 21 -45 68 -52 54 -7 99 -26 132 -57 16 -14 24 -16 29 -8 5 8 16 3 36 -16
l29 -28 -6 32 c-7 36 -10 34 81 33 l50 -1 -35 14 c-56 21 -142 66 -176 92 -25
18 -33 33 -38 74 -4 27 -9 58 -13 68 -3 9 16 -3 42 -28 l47 -45 -17 34 c-9 18
-28 63 -41 99 -23 61 -24 66 -8 83 9 11 15 19 12 19 -3 0 -13 -10 -24 -21z"/>
<path d="M1001 864 c0 -11 3 -14 6 -6 3 7 2 16 -1 19 -3 4 -6 -2 -5 -13z"/>
<path d="M895 839 c-4 -6 -5 -12 -2 -15 2 -3 7 2 10 11 7 17 1 20 -8 4z"/>
<path d="M1478 813 c7 -3 16 -2 19 1 4 3 -2 6 -13 5 -11 0 -14 -3 -6 -6z"/>
<path d="M1376 648 c42 -70 67 -93 105 -99 43 -6 49 0 19 19 -32 20 -23 30 23
26 34 -4 25 2 -53 31 -109 40 -103 39 -94 23z"/>
<path d="M1790 590 c0 -5 5 -10 11 -10 5 0 7 5 4 10 -3 6 -8 10 -11 10 -2 0
-4 -4 -4 -10z"/>
</g>
</svg>
